<svg xmlns="http://www.w3.org/2000/svg" direction="ltr" width="2048" height="2048" viewBox="4472.868925639343 7.5 2048 2048" stroke-linecap="round" stroke-linejoin="round" style="background-color: transparent;" data-color-mode="light" class="tl-container tl-theme__force-sRGB tl-theme__light"><defs/><g transform="matrix(1, 0, 0, 1, 4472.8689, 7.5)" opacity="1"><g data-lovart-layer-name="SVG 1"><g transform="scale(1.4143646408839778, 1.4143646408839778)"><g>
<g xmlns="http://www.w3.org/2000/svg" stroke-width="2.00" fill="none" stroke-linecap="butt">
<path stroke="#a5c4f8" d="M 666.57 305.24   Q 646.21 322.25 624.83 339.07   C 607.17 352.97 587.10 366.25 565.88 373.61   Q 558.36 376.22 547.67 377.83   Q 542.65 378.58 541.17 379.50   C 531.63 385.39 536.65 399.37 547.51 398.31   C 572.42 395.87 594.96 385.23 615.48 371.21   C 633.72 358.74 650.49 345.26 667.26 331.12"/>
<path stroke="#d9d9da" d="M 667.26 331.12   C 667.63 334.53 667.60 338.56 667.73 341.29   Q 671.44 422.35 679.45 618.48   Q 686.03 779.63 687.98 829.25   Q 688.48 841.72 692.40 913.93   Q 692.42 914.25 692.52 914.41   A 0.19 0.19 0.0 0 0 692.87 914.33   Q 693.46 909.22 693.63 906.00   Q 696.24 855.68 699.24 792.25   C 700.18 772.52 700.62 751.59 701.47 731.92   Q 707.27 597.09 711.78 482.34   C 714.06 424.26 716.83 366.86 718.49 323.99   C 719.12 307.72 719.49 291.31 718.77 278.01   C 718.17 267.03 716.98 255.45 713.50 245.04   Q 711.51 239.05 707.56 234.02   C 698.66 222.66 683.03 225.00 676.07 236.61   Q 670.88 245.27 669.16 256.83   Q 665.64 280.61 666.57 305.24"/>
<path stroke="#809fd4" d="M 667.26 331.12   L 681.98 318.98"/>
<path stroke="#d9d9da" d="M 681.98 318.98   Q 682.01 335.01 684.93 349.90   C 685.62 353.42 687.94 361.31 692.53 361.40   C 698.47 361.52 700.47 349.48 701.10 344.96   Q 704.03 323.87 703.40 302.05"/>
<path stroke="#809fd4" d="M 703.40 302.05   Q 703.34 301.93 703.54 301.38   A 2.48 2.28 57.5 0 0 703.69 300.54   Q 703.78 289.12 702.25 277.53"/>
<path stroke="#d9d9da" d="M 702.25 277.53   Q 701.98 273.14 699.94 264.78   Q 698.47 258.71 694.66 256.28   A 2.50 2.49 -24.2 0 0 693.68 255.91   C 687.63 254.99 685.20 264.08 684.33 268.62   Q 682.05 280.39 681.85 292.80"/>
<path stroke="#809fd4" d="M 681.85 292.80   L 666.57 305.24"/>
<path stroke="#a5c4f8" d="M 703.40 302.05   L 681.98 318.98"/>
<path stroke="#a5c4f8" d="M 702.25 277.53   L 681.85 292.80"/>
<path stroke="#fbde8c" d="M 971.84 428.01   Q 970.88 432.19 969.78 436.35   Q 961.33 468.36 941.10 493.35   Q 926.29 511.63 909.70 524.20   Q 874.54 550.85 831.35 564.31   Q 810.71 570.75 796.04 573.87"/>
<path stroke="#a0d2ab" d="M 796.04 573.87   L 710.87 590.57   A 0.86 0.86 0.0 0 0 710.17 591.39   L 709.47 612.57   A 0.44 0.43 -4.7 0 0 710.00 613.01   L 799.92 595.31"/>
<path stroke="#fbde8c" d="M 799.92 595.31   Q 831.80 588.74 861.75 576.73   Q 899.19 561.71 930.01 535.75   C 961.98 508.82 984.62 473.51 993.83 432.58"/>
<path stroke="#f2a49e" d="M 993.83 432.58   Q 1006.97 367.82 972.03 312.65   Q 962.21 297.14 951.03 286.44   C 916.93 253.79 872.60 237.26 825.24 237.02   Q 770.75 236.76 721.89 264.87   A 1.14 1.12 -17.5 0 0 721.32 265.94   L 722.98 287.42   A 0.53 0.53 0.0 0 0 723.80 287.82   Q 772.91 256.04 831.77 258.80   Q 874.41 260.80 910.54 283.77   Q 947.59 307.33 964.03 346.82   C 974.66 372.34 976.74 401.06 971.84 428.01"/>
<path stroke="#f0832c" d="M 993.83 432.58   L 971.84 428.01"/>
<path stroke="#9eb139" d="M 799.92 595.31   L 796.04 573.87"/>
<path stroke="#a0d2ab" d="M 675.38 600.34   C 647.32 608.72 619.85 621.89 597.65 640.86   C 565.44 668.39 549.05 710.14 559.88 752.05   Q 565.93 775.45 582.96 792.48   C 593.02 802.54 608.27 792.25 600.69 779.62   A 4.90 4.35 -86.6 0 0 600.02 778.77   Q 594.84 773.57 594.09 772.62   C 578.73 753.03 574.03 728.02 581.09 704.39   Q 585.28 690.37 593.88 678.09   C 613.51 650.05 644.36 632.84 676.37 622.39   A 0.83 0.81 80.1 0 0 676.93 621.58   L 675.97 600.76   A 0.46 0.46 0.0 0 0 675.38 600.34"/>
<path stroke="#989b9e" d="M 413.06 987.96   A 16.06 16.06 0.0 0 0 397.00 971.90   A 16.06 16.06 0.0 0 0 380.94 987.96   A 16.06 16.06 0.0 0 0 397.00 1004.02   A 16.06 16.06 0.0 0 0 413.06 987.96"/>
<path stroke="#989b9e" d="M 985.76 987.97   A 15.98 15.98 0.0 0 0 969.78 971.99   A 15.98 15.98 0.0 0 0 953.80 987.97   A 15.98 15.98 0.0 0 0 969.78 1003.95   A 15.98 15.98 0.0 0 0 985.76 987.97"/>
<path stroke="#989b9e" d="M 259.84 1136.90   A 0.50 0.50 0.0 0 0 260.34 1137.40   L 281.60 1137.40   A 0.46 0.46 0.0 0 0 282.06 1136.94   L 282.06 1074.65   A 0.55 0.55 0.0 0 1 282.61 1074.10   Q 304.68 1074.06 309.75 1074.10   C 322.08 1074.20 333.60 1072.85 344.44 1066.50   Q 364.76 1054.59 367.75 1031.09   C 371.81 999.16 345.89 977.47 315.99 976.92   Q 299.27 976.61 260.39 976.79   A 0.55 0.55 0.0 0 0 259.84 977.34   L 259.84 1136.90"/>
<path stroke="#989b9e" d="M 674.11 977.45   A 0.68 0.68 0.0 0 0 673.43 976.77   L 652.99 976.77   A 0.68 0.68 0.0 0 0 652.31 977.45   L 652.31 1136.71   A 0.68 0.68 0.0 0 0 652.99 1137.39   L 673.43 1137.39   A 0.68 0.68 0.0 0 0 674.11 1136.71   L 674.11 977.45"/>
<path stroke="#989b9e" d="M 793.36 1137.41   Q 802.08 1137.41 803.75 1137.36   A 0.61 0.61 0.0 0 0 804.34 1136.75   L 804.34 996.69   A 0.53 0.53 0.0 0 1 804.87 996.16   L 851.93 996.16   A 0.58 0.58 0.0 0 0 852.51 995.58   L 852.51 977.24   A 0.44 0.44 0.0 0 0 852.08 976.80   Q 851.01 976.75 793.43 976.73   Q 735.86 976.70 734.78 976.74   A 0.44 0.44 0.0 0 0 734.36 977.19   L 734.34 995.53   A 0.58 0.58 0.0 0 0 734.92 996.11   L 781.98 996.15   A 0.53 0.53 0.0 0 1 782.51 996.68   L 782.39 1136.74   A 0.61 0.61 0.0 0 0 782.98 1137.35   Q 784.65 1137.40 793.36 1137.41"/>
<path stroke="#989b9e" d="M 1028.54 977.42   A 0.64 0.64 0.0 0 0 1027.90 976.78   L 1007.50 976.78   A 0.64 0.64 0.0 0 0 1006.86 977.42   L 1006.86 1136.80   A 0.64 0.64 0.0 0 0 1007.50 1137.44   L 1027.90 1137.44   A 0.64 0.64 0.0 0 0 1028.54 1136.80   L 1028.54 977.42"/>
<path stroke="#989b9e" d="M 617.42 1107.20   Q 615.00 1109.26 612.56 1111.29   C 588.61 1131.17 552.04 1120.32 550.12 1086.83   A 0.35 0.35 0.0 0 1 550.47 1086.46   L 634.59 1086.46   A 0.70 0.69 2.2 0 0 635.29 1085.82   C 637.93 1051.32 618.65 1023.51 582.24 1024.20   C 551.03 1024.79 529.31 1049.69 528.27 1079.98   C 527.52 1101.59 535.96 1121.55 554.77 1132.74   C 563.66 1138.04 574.46 1140.64 584.75 1140.52   Q 612.22 1140.21 630.56 1120.22   A 0.68 0.68 0.0 0 0 630.54 1119.28   L 618.51 1107.24   A 0.81 0.80 46.9 0 0 617.42 1107.20"/>
<path stroke="#989b9e" d="M 915.54 1123.21   L 915.54 1136.73   A 0.67 0.67 0.0 0 0 916.21 1137.40   L 935.02 1137.40   A 0.49 0.49 0.0 0 0 935.51 1136.91   Q 935.62 1106.74 935.53 1067.76   C 935.48 1044.47 921.98 1028.47 898.88 1025.10   C 876.37 1021.81 854.03 1028.89 843.96 1050.62   A 0.32 0.31 24.3 0 0 844.13 1051.05   L 862.19 1058.28   A 1.00 1.00 0.0 0 0 863.46 1057.77   Q 868.87 1046.24 881.29 1043.59   C 890.67 1041.60 901.46 1043.21 908.17 1050.43   C 913.58 1056.25 915.04 1065.11 914.55 1073.09   A 0.50 0.50 0.0 0 1 913.90 1073.53   C 897.71 1068.13 879.36 1067.12 863.46 1072.89   C 852.38 1076.91 842.85 1085.11 840.52 1096.74   C 833.93 1129.64 867.17 1146.80 894.59 1138.37   C 902.77 1135.86 910.72 1130.08 915.03 1123.07   A 0.28 0.27 -29.4 0 1 915.54 1123.21"/>
<path stroke="#989b9e" d="M 1045.75 1081.44   C 1045.11 1113.91 1067.45 1139.15 1100.02 1140.46   C 1133.88 1141.81 1158.53 1117.11 1159.19 1083.69   C 1159.86 1050.28 1136.21 1024.61 1102.31 1024.62   C 1069.72 1024.64 1046.40 1048.97 1045.75 1081.44"/>
<path stroke="#989b9e" d="M 1196.20 1042.73   L 1196.20 1027.16   A 0.50 0.50 0.0 0 0 1195.70 1026.66   L 1176.83 1026.66   A 0.50 0.50 0.0 0 0 1176.33 1027.16   L 1176.33 1136.97   A 0.42 0.41 90.0 0 0 1176.74 1137.39   L 1197.20 1137.39   A 0.66 0.65 0.0 0 0 1197.86 1136.74   Q 1197.90 1112.91 1197.90 1075.51   C 1197.90 1067.51 1201.06 1058.23 1206.78 1052.42   Q 1217.50 1041.52 1234.51 1045.98   A 0.47 0.47 0.0 0 0 1235.10 1045.53   L 1235.10 1026.12   A 0.62 0.61 5.1 0 0 1234.59 1025.52   Q 1209.13 1021.16 1196.60 1042.84   A 0.22 0.21 60.2 0 1 1196.20 1042.73"/>
<path stroke="#989b9e" d="M 407.82 1027.12   A 0.45 0.45 0.0 0 0 407.37 1026.67   L 386.61 1026.67   A 0.45 0.45 0.0 0 0 386.16 1027.12   L 386.16 1136.96   A 0.45 0.45 0.0 0 0 386.61 1137.41   L 407.37 1137.41   A 0.45 0.45 0.0 0 0 407.82 1136.96   L 407.82 1027.12"/>
<path stroke="#989b9e" d="M 425.76 1026.65   A 0.36 0.36 0.0 0 0 425.47 1027.22   L 463.40 1079.88   A 0.36 0.36 0.0 0 1 463.40 1080.30   L 423.89 1136.84   A 0.36 0.36 0.0 0 0 424.18 1137.41   L 448.83 1137.41   A 0.36 0.36 0.0 0 0 449.13 1137.25   L 474.56 1098.28   A 0.36 0.36 0.0 0 1 475.16 1098.28   L 500.82 1137.24   A 0.36 0.36 0.0 0 0 501.12 1137.40   L 526.01 1137.40   A 0.36 0.36 0.0 0 0 526.31 1136.83   L 486.37 1079.42   A 0.36 0.36 0.0 0 1 486.37 1079.00   L 524.24 1027.23   A 0.36 0.36 0.0 0 0 523.95 1026.66   L 499.05 1026.66   A 0.36 0.36 0.0 0 0 498.75 1026.82   L 475.36 1062.65   A 0.36 0.36 0.0 0 1 474.76 1062.65   L 451.16 1026.81   A 0.36 0.36 0.0 0 0 450.86 1026.65   L 425.76 1026.65"/>
<path stroke="#989b9e" d="M 980.68 1027.26   A 0.61 0.61 0.0 0 0 980.07 1026.65   L 959.45 1026.65   A 0.61 0.61 0.0 0 0 958.84 1027.26   L 958.84 1136.80   A 0.61 0.61 0.0 0 0 959.45 1137.41   L 980.07 1137.41   A 0.61 0.61 0.0 0 0 980.68 1136.80   L 980.68 1027.26"/>
<path stroke="#989b9e" d="M 281.95 996.92   L 282.15 1053.86   A 0.69 0.69 0.0 0 0 282.84 1054.55   L 315.60 1054.43   A 30.37 28.51 -0.2 0 0 345.87 1025.82   L 345.87 1024.52   A 30.37 28.51 -0.2 0 0 315.40 996.11   L 282.64 996.23   A 0.69 0.69 0.0 0 0 281.95 996.92"/>
<path stroke="#989b9e" d="M 613.69 1069.48   C 611.86 1052.17 598.99 1042.18 581.94 1042.87   C 566.36 1043.49 554.70 1054.39 551.38 1069.39   A 0.44 0.44 0.0 0 0 551.81 1069.93   L 613.28 1069.93   A 0.41 0.41 0.0 0 0 613.69 1069.48"/>
<path stroke="#989b9e" d="M 913.81 1088.66   Q 901.71 1084.90 890.31 1084.76   C 879.79 1084.64 865.55 1087.96 862.41 1098.91   C 857.64 1115.55 873.58 1123.44 887.60 1121.32   Q 906.19 1118.50 912.79 1100.55   Q 914.53 1095.82 914.32 1089.33   A 0.72 0.71 7.8 0 0 913.81 1088.66"/>
<path stroke="#989b9e" d="M 1068.16 1082.43   C 1068.07 1102.96 1080.46 1120.87 1102.37 1120.96   C 1124.28 1121.05 1136.82 1103.25 1136.91 1082.72   C 1136.99 1062.19 1124.60 1044.28 1102.70 1044.18   C 1080.79 1044.09 1068.25 1061.90 1068.16 1082.43"/>
</g>
<path xmlns="http://www.w3.org/2000/svg" fill="#fdfefe" d="M 1448.00 0.00   L 1448.00 1448.00   L 0.00 1448.00   L 0.00 0.00   L 1448.00 0.00   Z   M 666.57 305.24   Q 646.21 322.25 624.83 339.07   C 607.17 352.97 587.10 366.25 565.88 373.61   Q 558.36 376.22 547.67 377.83   Q 542.65 378.58 541.17 379.50   C 531.63 385.39 536.65 399.37 547.51 398.31   C 572.42 395.87 594.96 385.23 615.48 371.21   C 633.72 358.74 650.49 345.26 667.26 331.12   C 667.63 334.53 667.60 338.56 667.73 341.29   Q 671.44 422.35 679.45 618.48   Q 686.03 779.63 687.98 829.25   Q 688.48 841.72 692.40 913.93   Q 692.42 914.25 692.52 914.41   A 0.19 0.19 0.0 0 0 692.87 914.33   Q 693.46 909.22 693.63 906.00   Q 696.24 855.68 699.24 792.25   C 700.18 772.52 700.62 751.59 701.47 731.92   Q 707.27 597.09 711.78 482.34   C 714.06 424.26 716.83 366.86 718.49 323.99   C 719.12 307.72 719.49 291.31 718.77 278.01   C 718.17 267.03 716.98 255.45 713.50 245.04   Q 711.51 239.05 707.56 234.02   C 698.66 222.66 683.03 225.00 676.07 236.61   Q 670.88 245.27 669.16 256.83   Q 665.64 280.61 666.57 305.24   Z   M 971.84 428.01   Q 970.88 432.19 969.78 436.35   Q 961.33 468.36 941.10 493.35   Q 926.29 511.63 909.70 524.20   Q 874.54 550.85 831.35 564.31   Q 810.71 570.75 796.04 573.87   L 710.87 590.57   A 0.86 0.86 0.0 0 0 710.17 591.39   L 709.47 612.57   A 0.44 0.43 -4.7 0 0 710.00 613.01   L 799.92 595.31   Q 831.80 588.74 861.75 576.73   Q 899.19 561.71 930.01 535.75   C 961.98 508.82 984.62 473.51 993.83 432.58   Q 1006.97 367.82 972.03 312.65   Q 962.21 297.14 951.03 286.44   C 916.93 253.79 872.60 237.26 825.24 237.02   Q 770.75 236.76 721.89 264.87   A 1.14 1.12 -17.5 0 0 721.32 265.94   L 722.98 287.42   A 0.53 0.53 0.0 0 0 723.80 287.82   Q 772.91 256.04 831.77 258.80   Q 874.41 260.80 910.54 283.77   Q 947.59 307.33 964.03 346.82   C 974.66 372.34 976.74 401.06 971.84 428.01   Z   M 675.38 600.34   C 647.32 608.72 619.85 621.89 597.65 640.86   C 565.44 668.39 549.05 710.14 559.88 752.05   Q 565.93 775.45 582.96 792.48   C 593.02 802.54 608.27 792.25 600.69 779.62   A 4.90 4.35 -86.6 0 0 600.02 778.77   Q 594.84 773.57 594.09 772.62   C 578.73 753.03 574.03 728.02 581.09 704.39   Q 585.28 690.37 593.88 678.09   C 613.51 650.05 644.36 632.84 676.37 622.39   A 0.83 0.81 80.1 0 0 676.93 621.58   L 675.97 600.76   A 0.46 0.46 0.0 0 0 675.38 600.34   Z   M 413.06 987.96   A 16.06 16.06 0.0 0 0 397.00 971.90   A 16.06 16.06 0.0 0 0 380.94 987.96   A 16.06 16.06 0.0 0 0 397.00 1004.02   A 16.06 16.06 0.0 0 0 413.06 987.96   Z   M 985.76 987.97   A 15.98 15.98 0.0 0 0 969.78 971.99   A 15.98 15.98 0.0 0 0 953.80 987.97   A 15.98 15.98 0.0 0 0 969.78 1003.95   A 15.98 15.98 0.0 0 0 985.76 987.97   Z   M 259.84 1136.90   A 0.50 0.50 0.0 0 0 260.34 1137.40   L 281.60 1137.40   A 0.46 0.46 0.0 0 0 282.06 1136.94   L 282.06 1074.65   A 0.55 0.55 0.0 0 1 282.61 1074.10   Q 304.68 1074.06 309.75 1074.10   C 322.08 1074.20 333.60 1072.85 344.44 1066.50   Q 364.76 1054.59 367.75 1031.09   C 371.81 999.16 345.89 977.47 315.99 976.92   Q 299.27 976.61 260.39 976.79   A 0.55 0.55 0.0 0 0 259.84 977.34   L 259.84 1136.90   Z   M 674.11 977.45   A 0.68 0.68 0.0 0 0 673.43 976.77   L 652.99 976.77   A 0.68 0.68 0.0 0 0 652.31 977.45   L 652.31 1136.71   A 0.68 0.68 0.0 0 0 652.99 1137.39   L 673.43 1137.39   A 0.68 0.68 0.0 0 0 674.11 1136.71   L 674.11 977.45   Z   M 793.36 1137.41   Q 802.08 1137.41 803.75 1137.36   A 0.61 0.61 0.0 0 0 804.34 1136.75   L 804.34 996.69   A 0.53 0.53 0.0 0 1 804.87 996.16   L 851.93 996.16   A 0.58 0.58 0.0 0 0 852.51 995.58   L 852.51 977.24   A 0.44 0.44 0.0 0 0 852.08 976.80   Q 851.01 976.75 793.43 976.73   Q 735.86 976.70 734.78 976.74   A 0.44 0.44 0.0 0 0 734.36 977.19   L 734.34 995.53   A 0.58 0.58 0.0 0 0 734.92 996.11   L 781.98 996.15   A 0.53 0.53 0.0 0 1 782.51 996.68   L 782.39 1136.74   A 0.61 0.61 0.0 0 0 782.98 1137.35   Q 784.65 1137.40 793.36 1137.41   Z   M 1028.54 977.42   A 0.64 0.64 0.0 0 0 1027.90 976.78   L 1007.50 976.78   A 0.64 0.64 0.0 0 0 1006.86 977.42   L 1006.86 1136.80   A 0.64 0.64 0.0 0 0 1007.50 1137.44   L 1027.90 1137.44   A 0.64 0.64 0.0 0 0 1028.54 1136.80   L 1028.54 977.42   Z   M 617.42 1107.20   Q 615.00 1109.26 612.56 1111.29   C 588.61 1131.17 552.04 1120.32 550.12 1086.83   A 0.35 0.35 0.0 0 1 550.47 1086.46   L 634.59 1086.46   A 0.70 0.69 2.2 0 0 635.29 1085.82   C 637.93 1051.32 618.65 1023.51 582.24 1024.20   C 551.03 1024.79 529.31 1049.69 528.27 1079.98   C 527.52 1101.59 535.96 1121.55 554.77 1132.74   C 563.66 1138.04 574.46 1140.64 584.75 1140.52   Q 612.22 1140.21 630.56 1120.22   A 0.68 0.68 0.0 0 0 630.54 1119.28   L 618.51 1107.24   A 0.81 0.80 46.9 0 0 617.42 1107.20   Z   M 915.54 1123.21   L 915.54 1136.73   A 0.67 0.67 0.0 0 0 916.21 1137.40   L 935.02 1137.40   A 0.49 0.49 0.0 0 0 935.51 1136.91   Q 935.62 1106.74 935.53 1067.76   C 935.48 1044.47 921.98 1028.47 898.88 1025.10   C 876.37 1021.81 854.03 1028.89 843.96 1050.62   A 0.32 0.31 24.3 0 0 844.13 1051.05   L 862.19 1058.28   A 1.00 1.00 0.0 0 0 863.46 1057.77   Q 868.87 1046.24 881.29 1043.59   C 890.67 1041.60 901.46 1043.21 908.17 1050.43   C 913.58 1056.25 915.04 1065.11 914.55 1073.09   A 0.50 0.50 0.0 0 1 913.90 1073.53   C 897.71 1068.13 879.36 1067.12 863.46 1072.89   C 852.38 1076.91 842.85 1085.11 840.52 1096.74   C 833.93 1129.64 867.17 1146.80 894.59 1138.37   C 902.77 1135.86 910.72 1130.08 915.03 1123.07   A 0.28 0.27 -29.4 0 1 915.54 1123.21   Z   M 1045.75 1081.44   C 1045.11 1113.91 1067.45 1139.15 1100.02 1140.46   C 1133.88 1141.81 1158.53 1117.11 1159.19 1083.69   C 1159.86 1050.28 1136.21 1024.61 1102.31 1024.62   C 1069.72 1024.64 1046.40 1048.97 1045.75 1081.44   Z   M 1196.20 1042.73   L 1196.20 1027.16   A 0.50 0.50 0.0 0 0 1195.70 1026.66   L 1176.83 1026.66   A 0.50 0.50 0.0 0 0 1176.33 1027.16   L 1176.33 1136.97   A 0.42 0.41 90.0 0 0 1176.74 1137.39   L 1197.20 1137.39   A 0.66 0.65 0.0 0 0 1197.86 1136.74   Q 1197.90 1112.91 1197.90 1075.51   C 1197.90 1067.51 1201.06 1058.23 1206.78 1052.42   Q 1217.50 1041.52 1234.51 1045.98   A 0.47 0.47 0.0 0 0 1235.10 1045.53   L 1235.10 1026.12   A 0.62 0.61 5.1 0 0 1234.59 1025.52   Q 1209.13 1021.16 1196.60 1042.84   A 0.22 0.21 60.2 0 1 1196.20 1042.73   Z   M 407.82 1027.12   A 0.45 0.45 0.0 0 0 407.37 1026.67   L 386.61 1026.67   A 0.45 0.45 0.0 0 0 386.16 1027.12   L 386.16 1136.96   A 0.45 0.45 0.0 0 0 386.61 1137.41   L 407.37 1137.41   A 0.45 0.45 0.0 0 0 407.82 1136.96   L 407.82 1027.12   Z   M 425.76 1026.65   A 0.36 0.36 0.0 0 0 425.47 1027.22   L 463.40 1079.88   A 0.36 0.36 0.0 0 1 463.40 1080.30   L 423.89 1136.84   A 0.36 0.36 0.0 0 0 424.18 1137.41   L 448.83 1137.41   A 0.36 0.36 0.0 0 0 449.13 1137.25   L 474.56 1098.28   A 0.36 0.36 0.0 0 1 475.16 1098.28   L 500.82 1137.24   A 0.36 0.36 0.0 0 0 501.12 1137.40   L 526.01 1137.40   A 0.36 0.36 0.0 0 0 526.31 1136.83   L 486.37 1079.42   A 0.36 0.36 0.0 0 1 486.37 1079.00   L 524.24 1027.23   A 0.36 0.36 0.0 0 0 523.95 1026.66   L 499.05 1026.66   A 0.36 0.36 0.0 0 0 498.75 1026.82   L 475.36 1062.65   A 0.36 0.36 0.0 0 1 474.76 1062.65   L 451.16 1026.81   A 0.36 0.36 0.0 0 0 450.86 1026.65   L 425.76 1026.65   Z   M 980.68 1027.26   A 0.61 0.61 0.0 0 0 980.07 1026.65   L 959.45 1026.65   A 0.61 0.61 0.0 0 0 958.84 1027.26   L 958.84 1136.80   A 0.61 0.61 0.0 0 0 959.45 1137.41   L 980.07 1137.41   A 0.61 0.61 0.0 0 0 980.68 1136.80   L 980.68 1027.26   Z"/>
<path xmlns="http://www.w3.org/2000/svg" fill="#b4b4b6" d="M 667.26 331.12   L 681.98 318.98   Q 682.01 335.01 684.93 349.90   C 685.62 353.42 687.94 361.31 692.53 361.40   C 698.47 361.52 700.47 349.48 701.10 344.96   Q 704.03 323.87 703.40 302.05   Q 703.34 301.93 703.54 301.38   A 2.48 2.28 57.5 0 0 703.69 300.54   Q 703.78 289.12 702.25 277.53   Q 701.98 273.14 699.94 264.78   Q 698.47 258.71 694.66 256.28   A 2.50 2.49 -24.2 0 0 693.68 255.91   C 687.63 254.99 685.20 264.08 684.33 268.62   Q 682.05 280.39 681.85 292.80   L 666.57 305.24   Q 665.64 280.61 669.16 256.83   Q 670.88 245.27 676.07 236.61   C 683.03 225.00 698.66 222.66 707.56 234.02   Q 711.51 239.05 713.50 245.04   C 716.98 255.45 718.17 267.03 718.77 278.01   C 719.49 291.31 719.12 307.72 718.49 323.99   C 716.83 366.86 714.06 424.26 711.78 482.34   Q 707.27 597.09 701.47 731.92   C 700.62 751.59 700.18 772.52 699.24 792.25   Q 696.24 855.68 693.63 906.00   Q 693.46 909.22 692.87 914.33   A 0.19 0.19 0.0 0 1 692.52 914.41   Q 692.42 914.25 692.40 913.93   Q 688.48 841.72 687.98 829.25   Q 686.03 779.63 679.45 618.48   Q 671.44 422.35 667.73 341.29   C 667.60 338.56 667.63 334.53 667.26 331.12   Z"/>
<path xmlns="http://www.w3.org/2000/svg" fill="#e6493d" d="M 993.83 432.58   L 971.84 428.01   C 976.74 401.06 974.66 372.34 964.03 346.82   Q 947.59 307.33 910.54 283.77   Q 874.41 260.80 831.77 258.80   Q 772.91 256.04 723.80 287.82   A 0.53 0.53 0.0 0 1 722.98 287.42   L 721.32 265.94   A 1.14 1.12 -17.5 0 1 721.89 264.87   Q 770.75 236.76 825.24 237.02   C 872.60 237.26 916.93 253.79 951.03 286.44   Q 962.21 297.14 972.03 312.65   Q 1006.97 367.82 993.83 432.58   Z"/>
<path xmlns="http://www.w3.org/2000/svg" fill="#fdfefe" d="M 702.25 277.53   L 681.85 292.80   Q 682.05 280.39 684.33 268.62   C 685.20 264.08 687.63 254.99 693.68 255.91   A 2.50 2.49 -24.2 0 1 694.66 256.28   Q 698.47 258.71 699.94 264.78   Q 701.98 273.14 702.25 277.53   Z"/>
<path xmlns="http://www.w3.org/2000/svg" fill="#4c89f2" d="M 702.25 277.53   Q 703.78 289.12 703.69 300.54   A 2.48 2.28 57.5 0 1 703.54 301.38   Q 703.34 301.93 703.40 302.05   L 681.98 318.98   L 667.26 331.12   C 650.49 345.26 633.72 358.74 615.48 371.21   C 594.96 385.23 572.42 395.87 547.51 398.31   C 536.65 399.37 531.63 385.39 541.17 379.50   Q 542.65 378.58 547.67 377.83   Q 558.36 376.22 565.88 373.61   C 587.10 366.25 607.17 352.97 624.83 339.07   Q 646.21 322.25 666.57 305.24   L 681.85 292.80   L 702.25 277.53   Z"/>
<path xmlns="http://www.w3.org/2000/svg" fill="#fdfefe" d="M 703.40 302.05   Q 704.03 323.87 701.10 344.96   C 700.47 349.48 698.47 361.52 692.53 361.40   C 687.94 361.31 685.62 353.42 684.93 349.90   Q 682.01 335.01 681.98 318.98   L 703.40 302.05   Z"/>
<path xmlns="http://www.w3.org/2000/svg" fill="#f9bd1a" d="M 971.84 428.01   L 993.83 432.58   C 984.62 473.51 961.98 508.82 930.01 535.75   Q 899.19 561.71 861.75 576.73   Q 831.80 588.74 799.92 595.31   L 796.04 573.87   Q 810.71 570.75 831.35 564.31   Q 874.54 550.85 909.70 524.20   Q 926.29 511.63 941.10 493.35   Q 961.33 468.36 969.78 436.35   Q 970.88 432.19 971.84 428.01   Z"/>
<path xmlns="http://www.w3.org/2000/svg" fill="#42a557" d="M 796.04 573.87   L 799.92 595.31   L 710.00 613.01   A 0.44 0.43 -4.7 0 1 709.47 612.57   L 710.17 591.39   A 0.86 0.86 0.0 0 1 710.87 590.57   L 796.04 573.87   Z"/>
<path xmlns="http://www.w3.org/2000/svg" fill="#42a557" d="M 675.38 600.34   A 0.46 0.46 0.0 0 1 675.97 600.76   L 676.93 621.58   A 0.83 0.81 80.1 0 1 676.37 622.39   C 644.36 632.84 613.51 650.05 593.88 678.09   Q 585.28 690.37 581.09 704.39   C 574.03 728.02 578.73 753.03 594.09 772.62   Q 594.84 773.57 600.02 778.77   A 4.90 4.35 -86.6 0 1 600.69 779.62   C 608.27 792.25 593.02 802.54 582.96 792.48   Q 565.93 775.45 559.88 752.05   C 549.05 710.14 565.44 668.39 597.65 640.86   C 619.85 621.89 647.32 608.72 675.38 600.34   Z"/>
<circle xmlns="http://www.w3.org/2000/svg" fill="#33373d" cx="397.00" cy="987.96" r="16.06"/>
<circle xmlns="http://www.w3.org/2000/svg" fill="#33373d" cx="969.78" cy="987.97" r="15.98"/>
<path xmlns="http://www.w3.org/2000/svg" fill="#33373d" d="M 259.84 1136.90   L 259.84 977.34   A 0.55 0.55 0.0 0 1 260.39 976.79   Q 299.27 976.61 315.99 976.92   C 345.89 977.47 371.81 999.16 367.75 1031.09   Q 364.76 1054.59 344.44 1066.50   C 333.60 1072.85 322.08 1074.20 309.75 1074.10   Q 304.68 1074.06 282.61 1074.10   A 0.55 0.55 0.0 0 0 282.06 1074.65   L 282.06 1136.94   A 0.46 0.46 0.0 0 1 281.60 1137.40   L 260.34 1137.40   A 0.50 0.50 0.0 0 1 259.84 1136.90   Z   M 281.95 996.92   L 282.15 1053.86   A 0.69 0.69 0.0 0 0 282.84 1054.55   L 315.60 1054.43   A 30.37 28.51 -0.2 0 0 345.87 1025.82   L 345.87 1024.52   A 30.37 28.51 -0.2 0 0 315.40 996.11   L 282.64 996.23   A 0.69 0.69 0.0 0 0 281.95 996.92   Z"/>
<rect xmlns="http://www.w3.org/2000/svg" fill="#33373d" x="652.31" y="976.77" width="21.80" height="160.62" rx="0.68"/>
<path xmlns="http://www.w3.org/2000/svg" fill="#33373d" d="M 793.43 976.73   Q 851.01 976.75 852.08 976.80   A 0.44 0.44 0.0 0 1 852.51 977.24   L 852.51 995.58   A 0.58 0.58 0.0 0 1 851.93 996.16   L 804.87 996.16   A 0.53 0.53 0.0 0 0 804.34 996.69   L 804.34 1136.75   A 0.61 0.61 0.0 0 1 803.75 1137.36   Q 802.08 1137.41 793.36 1137.41   Q 784.65 1137.40 782.98 1137.35   A 0.61 0.61 0.0 0 1 782.39 1136.74   L 782.51 996.68   A 0.53 0.53 0.0 0 0 781.98 996.15   L 734.92 996.11   A 0.58 0.58 0.0 0 1 734.34 995.53   L 734.36 977.19   A 0.44 0.44 0.0 0 1 734.78 976.74   Q 735.86 976.70 793.43 976.73   Z"/>
<rect xmlns="http://www.w3.org/2000/svg" fill="#33373d" x="1006.86" y="976.78" width="21.68" height="160.66" rx="0.64"/>
<path xmlns="http://www.w3.org/2000/svg" fill="#fdfefe" d="M 281.95 996.92   A 0.69 0.69 0.0 0 1 282.64 996.23   L 315.40 996.11   A 30.37 28.51 -0.2 0 1 345.87 1024.52   L 345.87 1025.82   A 30.37 28.51 -0.2 0 1 315.60 1054.43   L 282.84 1054.55   A 0.69 0.69 0.0 0 1 282.15 1053.86   L 281.95 996.92   Z"/>
<path xmlns="http://www.w3.org/2000/svg" fill="#33373d" d="M 618.51 1107.24   L 630.54 1119.28   A 0.68 0.68 0.0 0 1 630.56 1120.22   Q 612.22 1140.21 584.75 1140.52   C 574.46 1140.64 563.66 1138.04 554.77 1132.74   C 535.96 1121.55 527.52 1101.59 528.27 1079.98   C 529.31 1049.69 551.03 1024.79 582.24 1024.20   C 618.65 1023.51 637.93 1051.32 635.29 1085.82   A 0.70 0.69 2.2 0 1 634.59 1086.46   L 550.47 1086.46   A 0.35 0.35 0.0 0 0 550.12 1086.83   C 552.04 1120.32 588.61 1131.17 612.56 1111.29   Q 615.00 1109.26 617.42 1107.20   A 0.81 0.80 46.9 0 1 618.51 1107.24   Z   M 613.69 1069.48   C 611.86 1052.17 598.99 1042.18 581.94 1042.87   C 566.36 1043.49 554.70 1054.39 551.38 1069.39   A 0.44 0.44 0.0 0 0 551.81 1069.93   L 613.28 1069.93   A 0.41 0.41 0.0 0 0 613.69 1069.48   Z"/>
<path xmlns="http://www.w3.org/2000/svg" fill="#33373d" d="M 915.54 1123.21   A 0.28 0.27 -29.4 0 0 915.03 1123.07   C 910.72 1130.08 902.77 1135.86 894.59 1138.37   C 867.17 1146.80 833.93 1129.64 840.52 1096.74   C 842.85 1085.11 852.38 1076.91 863.46 1072.89   C 879.36 1067.12 897.71 1068.13 913.90 1073.53   A 0.50 0.50 0.0 0 0 914.55 1073.09   C 915.04 1065.11 913.58 1056.25 908.17 1050.43   C 901.46 1043.21 890.67 1041.60 881.29 1043.59   Q 868.87 1046.24 863.46 1057.77   A 1.00 1.00 0.0 0 1 862.19 1058.28   L 844.13 1051.05   A 0.32 0.31 24.3 0 1 843.96 1050.62   C 854.03 1028.89 876.37 1021.81 898.88 1025.10   C 921.98 1028.47 935.48 1044.47 935.53 1067.76   Q 935.62 1106.74 935.51 1136.91   A 0.49 0.49 0.0 0 1 935.02 1137.40   L 916.21 1137.40   A 0.67 0.67 0.0 0 1 915.54 1136.73   L 915.54 1123.21   Z   M 913.81 1088.66   Q 901.71 1084.90 890.31 1084.76   C 879.79 1084.64 865.55 1087.96 862.41 1098.91   C 857.64 1115.55 873.58 1123.44 887.60 1121.32   Q 906.19 1118.50 912.79 1100.55   Q 914.53 1095.82 914.32 1089.33   A 0.72 0.71 7.8 0 0 913.81 1088.66   Z"/>
<path xmlns="http://www.w3.org/2000/svg" fill="#33373d" d="M 1159.19 1083.69   C 1158.53 1117.11 1133.88 1141.81 1100.02 1140.46   C 1067.45 1139.15 1045.11 1113.91 1045.75 1081.44   C 1046.40 1048.97 1069.72 1024.64 1102.31 1024.62   C 1136.21 1024.61 1159.86 1050.28 1159.19 1083.69   Z   M 1068.16 1082.43   C 1068.07 1102.96 1080.46 1120.87 1102.37 1120.96   C 1124.28 1121.05 1136.82 1103.25 1136.91 1082.72   C 1136.99 1062.19 1124.60 1044.28 1102.70 1044.18   C 1080.79 1044.09 1068.25 1061.90 1068.16 1082.43   Z"/>
<path xmlns="http://www.w3.org/2000/svg" fill="#33373d" d="M 1196.20 1042.73   A 0.22 0.21 60.2 0 0 1196.60 1042.84   Q 1209.13 1021.16 1234.59 1025.52   A 0.62 0.61 5.1 0 1 1235.10 1026.12   L 1235.10 1045.53   A 0.47 0.47 0.0 0 1 1234.51 1045.98   Q 1217.50 1041.52 1206.78 1052.42   C 1201.06 1058.23 1197.90 1067.51 1197.90 1075.51   Q 1197.90 1112.91 1197.86 1136.74   A 0.66 0.65 -0.0 0 1 1197.20 1137.39   L 1176.74 1137.39   A 0.42 0.41 -90.0 0 1 1176.33 1136.97   L 1176.33 1027.16   A 0.50 0.50 0.0 0 1 1176.83 1026.66   L 1195.70 1026.66   A 0.50 0.50 0.0 0 1 1196.20 1027.16   L 1196.20 1042.73   Z"/>
<rect xmlns="http://www.w3.org/2000/svg" fill="#33373d" x="386.16" y="1026.67" width="21.66" height="110.74" rx="0.45"/>
<path xmlns="http://www.w3.org/2000/svg" fill="#33373d" d="M 425.76 1026.65   L 450.86 1026.65   A 0.36 0.36 0.0 0 1 451.16 1026.81   L 474.76 1062.65   A 0.36 0.36 0.0 0 0 475.36 1062.65   L 498.75 1026.82   A 0.36 0.36 0.0 0 1 499.05 1026.66   L 523.95 1026.66   A 0.36 0.36 0.0 0 1 524.24 1027.23   L 486.37 1079.00   A 0.36 0.36 0.0 0 0 486.37 1079.42   L 526.31 1136.83   A 0.36 0.36 0.0 0 1 526.01 1137.40   L 501.12 1137.40   A 0.36 0.36 0.0 0 1 500.82 1137.24   L 475.16 1098.28   A 0.36 0.36 0.0 0 0 474.56 1098.28   L 449.13 1137.25   A 0.36 0.36 0.0 0 1 448.83 1137.41   L 424.18 1137.41   A 0.36 0.36 0.0 0 1 423.89 1136.84   L 463.40 1080.30   A 0.36 0.36 0.0 0 0 463.40 1079.88   L 425.47 1027.22   A 0.36 0.36 0.0 0 1 425.76 1026.65   Z"/>
<rect xmlns="http://www.w3.org/2000/svg" fill="#33373d" x="958.84" y="1026.65" width="21.84" height="110.76" rx="0.61"/>
<path xmlns="http://www.w3.org/2000/svg" fill="#fdfefe" d="M 613.69 1069.48   A 0.41 0.41 0.0 0 1 613.28 1069.93   L 551.81 1069.93   A 0.44 0.44 0.0 0 1 551.38 1069.39   C 554.70 1054.39 566.36 1043.49 581.94 1042.87   C 598.99 1042.18 611.86 1052.17 613.69 1069.48   Z"/>
<path xmlns="http://www.w3.org/2000/svg" fill="#fdfefe" d="M 1102.70 1044.18   C 1124.60 1044.28 1136.99 1062.19 1136.91 1082.72   C 1136.82 1103.25 1124.28 1121.05 1102.37 1120.96   C 1080.46 1120.87 1068.07 1102.96 1068.16 1082.43   C 1068.25 1061.90 1080.79 1044.09 1102.70 1044.18   Z"/>
<path xmlns="http://www.w3.org/2000/svg" fill="#fdfefe" d="M 914.32 1089.33   Q 914.53 1095.82 912.79 1100.55   Q 906.19 1118.50 887.60 1121.32   C 873.58 1123.44 857.64 1115.55 862.41 1098.91   C 865.55 1087.96 879.79 1084.64 890.31 1084.76   Q 901.71 1084.90 913.81 1088.66   A 0.72 0.71 7.8 0 1 914.32 1089.33   Z"/>
</g></g></g></g></svg>